<svg width="368" height="327" viewBox="0 0 368 327" fill="none" xmlns="http://www.w3.org/2000/svg">
<path d="M2.18182 326.909C0.727273 325.455 0 324.485 0 324C0 323.273 9.57576 284.485 28.7273 207.636C47.8788 130.788 58.0606 90.6667 59.2727 87.2727C64.6061 70.7879 71.5152 56.3636 80 44C88.4849 31.6364 96.4849 22.6667 104 17.0909C117.576 5.69696 132.121 -1.2517e-05 147.636 -1.2517e-05H148.364C163.394 -1.2517e-05 175.758 4.60605 185.455 13.8182C195.152 23.0303 200 34.7879 200 49.0909C200 74.5454 187.394 95.6364 162.182 112.364L166.909 117.091C179.273 129.455 185.455 145.333 185.455 164.727C185.455 192.121 175.152 214.788 154.545 232.727C133.939 250.667 110.788 259.758 85.0909 260C77.8182 260 71.2727 259.03 65.4545 257.091C59.6364 255.152 55.0303 252.848 51.6364 250.182C48.2424 247.515 45.5758 244.727 43.6364 241.818C41.697 238.909 40.2424 236.606 39.2727 234.909C38.303 233.212 37.697 232.485 37.4545 232.727L14.1818 324.727C13.697 326.182 11.2727 326.909 6.90909 326.909H2.18182ZM120 99.6364C129.455 99.6364 138.424 101.091 146.909 104L148.727 102.909C149.697 101.939 150.545 101.091 151.273 100.364C152 99.6364 153.212 98.4242 154.909 96.7273C156.606 95.0303 158.061 93.3333 159.273 91.6364C160.485 89.9394 161.818 87.7576 163.273 85.0909C164.727 82.4242 166.182 79.5151 167.636 76.3636C169.091 73.2121 170.182 69.697 170.909 65.8182C171.636 61.9394 172.606 57.5757 173.818 52.7273C174.303 50.5454 174.545 46.5454 174.545 40.7273C174.545 36.3636 174.424 33.5757 174.182 32.3636C170.545 20 161.333 13.8182 146.545 13.8182C136.364 13.8182 126.788 16.7273 117.818 22.5454C108.848 28.3636 101.455 35.7576 95.6364 44.7273C89.8182 53.697 85.0909 61.9394 81.4545 69.4545C77.8182 76.9697 75.0303 84.1212 73.0909 90.9091C71.8788 94.7879 67.2727 112.606 59.2727 144.364C51.2727 176.121 47.1515 193.091 46.9091 195.273C46.6667 196.485 46.5455 199.03 46.5455 202.909C46.5455 214.545 49.2121 224.121 54.5455 231.636C62.0606 241.818 72.6061 246.909 86.1818 246.909C96.3636 246.909 107.152 243.879 118.545 237.818C129.939 231.758 139.152 221.333 146.182 206.545C150.061 198.303 152.97 188.97 154.909 178.545C156.848 168.121 157.818 160.242 157.818 154.909C157.818 140.848 153.576 129.576 145.091 121.091C134.909 124.485 125.818 126.182 117.818 126.182H114.182C95.0303 126.182 85.4545 122.424 85.4545 114.909C85.4545 113.212 85.8182 111.515 86.5455 109.818C89.9394 103.03 101.091 99.6364 120 99.6364Z" fill="white"/>
<path d="M224.527 266.301C207.778 266.301 194.232 260.759 183.887 249.675C173.542 238.591 168.246 224.675 168 207.926C168 183.296 176.99 160.389 194.97 139.207C212.951 118.025 233.887 106.079 257.778 103.369C258.025 103.123 275.266 103 309.502 103H360.488C360.734 103.246 361.103 103.493 361.596 103.739C362.089 103.985 362.581 104.232 363.074 104.478C363.567 104.724 363.936 104.97 364.182 105.217C364.429 105.463 364.798 105.833 365.291 106.325C365.783 106.818 366.03 107.064 366.03 107.064C366.03 107.064 366.276 107.557 366.768 108.542C367.261 109.527 367.384 110.02 367.138 110.02C366.892 110.02 367.015 110.635 367.507 111.867C368 113.099 368.123 113.837 367.877 114.084C367.877 124.921 359.872 130.34 343.862 130.34C342.138 130.34 340.044 130.34 337.581 130.34C335.118 130.34 333.394 130.217 332.409 129.97H310.241L312.089 133.665C316.522 143.025 318.739 153.493 318.739 165.069C318.739 192.163 308.887 215.808 289.182 236.005C269.478 256.202 247.926 266.301 224.527 266.301ZM289.921 159.527C289.921 139.823 279.453 129.97 258.517 129.97C227.975 129.97 208.148 151.399 199.034 194.256C198.788 195.241 198.665 195.98 198.665 196.473C196.695 205.586 195.709 213.099 195.709 219.01C195.709 231.325 198.788 239.946 204.946 244.872C211.103 249.798 218.123 252.384 226.005 252.631C239.305 252.631 251.498 246.842 262.581 235.266C269.724 227.877 275.512 218.025 279.946 205.709C284.379 193.394 287.089 183.542 288.074 176.153C289.059 168.764 289.675 163.222 289.921 159.527Z" fill="white"/>
</svg>
